<svg width="1200" height="280" viewBox="0 0 1200 280" fill="none" xmlns="http://www.w3.org/2000/svg">
  <defs>
    <pattern id="grid" width="24" height="24" patternUnits="userSpaceOnUse">
      <path d="M 24 0 L 0 0 0 24" fill="none" stroke="#30363D" stroke-width="1" opacity="0.42"/>
    </pattern>
  </defs>

  <rect width="1200" height="280" rx="18" fill="#0D1117"/>
  <rect x="1" y="1" width="1198" height="278" rx="17" stroke="#30363D" stroke-width="2"/>
  <rect x="1" y="1" width="1198" height="278" rx="17" fill="url(#grid)"/>

  <g font-family="-apple-system, BlinkMacSystemFont, 'Segoe UI', Helvetica, Arial, sans-serif">
    <text x="64" y="76" fill="#8B949E" font-size="13" font-weight="600" letter-spacing="2.4">LUCAS LEÃO</text>
    <text x="64" y="132" fill="#F0F6FC" font-size="42" font-weight="700" letter-spacing="-1.2">Software Engineer</text>
    <text x="64" y="174" fill="#8B949E" font-size="19" font-weight="500">Full Stack · Data · Applied AI</text>
    <line x1="64" y1="205" x2="612" y2="205" stroke="#30363D"/>
    <text x="64" y="232" fill="#8B949E" font-size="14">Designing, shipping and operating software end to end.</text>
  </g>

  <g font-family="ui-monospace, SFMono-Regular, Menlo, Monaco, Consolas, monospace">
    <text x="754" y="60" fill="#8B949E" font-size="11" font-weight="600" letter-spacing="1.5">SYSTEM OWNERSHIP</text>

    <path d="M790 126 H870 M914 126 H994 M1038 126 H1110" stroke="#6E7681" stroke-width="1.5" stroke-dasharray="5 6"/>

    <circle cx="768" cy="126" r="9" fill="#0D1117" stroke="#58A6FF" stroke-width="2"/>
    <circle cx="892" cy="126" r="9" fill="#0D1117" stroke="#6E7681" stroke-width="2"/>
    <circle cx="1016" cy="126" r="9" fill="#0D1117" stroke="#6E7681" stroke-width="2"/>
    <circle cx="1132" cy="126" r="9" fill="#58A6FF"/>

    <text x="738" y="158" fill="#F0F6FC" font-size="12">problem</text>
    <text x="864" y="158" fill="#F0F6FC" font-size="12">system</text>
    <text x="996" y="158" fill="#F0F6FC" font-size="12">ship</text>
    <text x="1102" y="158" fill="#F0F6FC" font-size="12">operate</text>

    <rect x="754" y="190" width="392" height="34" rx="8" fill="#161B22" stroke="#30363D"/>
    <text x="772" y="212" fill="#8B949E" font-size="11">domain → architecture → delivery → feedback</text>
  </g>
</svg>
