<svg width="1200" height="286" viewBox="0 0 1200 286" fill="none" xmlns="http://www.w3.org/2000/svg">
  <rect width="1200" height="286" rx="18" fill="#FFFFFF"/>
  <rect x="1" y="1" width="1198" height="284" rx="17" stroke="#D0D7DE" stroke-width="2"/>

  <g font-family="-apple-system, BlinkMacSystemFont, 'Segoe UI', Helvetica, Arial, sans-serif">
    <text x="54" y="50" fill="#59636E" font-size="15" font-weight="700" letter-spacing="2.2">AGENT-ASSISTED ENGINEERING WORKFLOW</text>
    <text x="54" y="78" fill="#424A53" font-size="16" font-weight="500">Human supervision and deterministic validation remain the control surface.</text>
  </g>

  <g font-family="ui-monospace, SFMono-Regular, Menlo, Monaco, Consolas, monospace">
    <rect x="54" y="112" width="184" height="76" rx="10" fill="#F6F8FA" stroke="#D0D7DE"/>
    <text x="70" y="141" fill="#1F2328" font-size="15" font-weight="700">PROBLEM / DESIGN</text>
    <text x="70" y="166" fill="#59636E" font-size="14">domain · contracts</text>

    <rect x="278" y="112" width="184" height="76" rx="10" fill="#F6F8FA" stroke="#0969DA" stroke-width="1.6"/>
    <text x="294" y="141" fill="#1F2328" font-size="15" font-weight="700">ORCHESTRATION</text>
    <text x="294" y="166" fill="#424A53" font-size="14">Hermes · Maestri</text>

    <rect x="502" y="112" width="240" height="76" rx="10" fill="#F6F8FA" stroke="#0969DA" stroke-width="1.6"/>
    <text x="518" y="141" fill="#1F2328" font-size="15" font-weight="700">CODING / REASONING</text>
    <text x="518" y="166" fill="#424A53" font-size="14">Codex · Claude Code · OpenCode</text>

    <rect x="782" y="112" width="166" height="76" rx="10" fill="#F6F8FA" stroke="#D0D7DE"/>
    <text x="798" y="141" fill="#1F2328" font-size="15" font-weight="700">VALIDATION</text>
    <text x="798" y="166" fill="#59636E" font-size="14">tests · CI · review</text>

    <rect x="988" y="112" width="158" height="76" rx="10" fill="#F6F8FA" stroke="#D0D7DE"/>
    <text x="1004" y="141" fill="#1F2328" font-size="15" font-weight="700">DELIVERY</text>
    <text x="1004" y="166" fill="#59636E" font-size="14">ship · operate</text>

    <path d="M238 150 H278 M462 150 H502 M742 150 H782 M948 150 H988" stroke="#6E7781" stroke-width="1.8"/>
    <path d="M268 145 L278 150 L268 155 M492 145 L502 150 L492 155 M772 145 L782 150 L772 155 M978 145 L988 150 L978 155" stroke="#6E7781" stroke-width="1.8" fill="none"/>

    <rect x="330" y="216" width="360" height="38" rx="9" fill="#FFFFFF" stroke="#D0D7DE"/>
    <text x="346" y="241" fill="#424A53" font-size="14" font-weight="650">MODEL ROUTING · OmniRoute</text>

    <rect x="726" y="216" width="420" height="38" rx="9" fill="#FFFFFF" stroke="#D0D7DE"/>
    <text x="742" y="241" fill="#424A53" font-size="14" font-weight="650">RUNTIME · Linux · Azure · Oracle Cloud · Tailscale</text>

    <path d="M370 188 V216 M622 188 V216" stroke="#D0D7DE" stroke-width="1.4" stroke-dasharray="4 5"/>
  </g>
</svg>
